<?xml version="1.0" encoding="UTF-8" standalone="no"?>
<!DOCTYPE svg PUBLIC "-//W3C//DTD SVG 1.1//EN" "http://www.w3.org/Graphics/SVG/1.1/DTD/svg11.dtd">
<svg xmlns="http://www.w3.org/2000/svg" version="1.1" viewBox="0.00 0.00 218.00 47.00">
<g stroke-width="2.00" fill="none" stroke-linecap="butt">
<path stroke="transparent" vector-effect="non-scaling-stroke" d="
  M 5.43 16.45
  C 0.68 27.44 7.67 39.62 18.14 43.41
  Q 21.89 44.77 29.04 44.77
  Q 109.49 44.76 189.94 44.79
  Q 196.46 44.79 199.47 43.87
  C 206.69 41.66 213.55 34.58 214.75 27.25
  C 216.88 14.18 207.28 2.27 194.00 2.26
  Q 115.93 2.17 37.87 2.20
  Q 22.91 2.21 19.73 3.10
  Q 10.02 5.82 5.43 16.45"
/>
<path stroke="transparent" vector-effect="non-scaling-stroke" d="
  M 142.63 23.80
  A 0.44 0.42 35.7 0 1 142.52 23.18
  C 146.56 18.01 142.85 11.95 136.73 12.13
  Q 131.14 12.28 125.43 12.31
  Q 124.96 12.31 124.96 12.78
  L 124.97 35.23
  Q 124.97 35.69 125.43 35.69
  Q 131.85 35.78 138.24 35.72
  C 144.87 35.66 148.52 27.66 142.63 23.80"
/>
<path stroke="transparent" vector-effect="non-scaling-stroke" d="
  M 160.76 30.01
  L 159.59 30.02
  Q 155.12 30.05 155.15 25.59
  L 155.23 12.74
  A 0.49 0.48 89.4 0 0 154.74 12.25
  L 149.23 12.29
  A 0.49 0.48 -0.0 0 0 148.75 12.76
  Q 148.68 19.64 149.39 27.00
  C 150.31 36.65 161.03 39.20 167.31 32.81
  Q 169.79 30.29 169.86 25.25
  Q 169.95 18.85 169.83 13.06
  A 0.58 0.57 89.5 0 0 169.26 12.49
  L 164.34 12.50
  Q 163.93 12.50 163.93 12.91
  L 163.99 26.74
  A 3.26 3.25 -0.4 0 1 160.76 30.01"
/>
<path stroke="transparent" vector-effect="non-scaling-stroke" d="
  M 174.54 12.98
  L 174.54 35.06
  A 0.71 0.71 0.0 0 0 175.25 35.77
  L 184.79 35.77
  A 11.81 11.57 -0.0 0 0 196.60 24.20
  L 196.60 23.84
  A 11.81 11.57 0.0 0 0 184.79 12.27
  L 175.25 12.27
  A 0.71 0.71 0.0 0 0 174.54 12.98"
/>
<path stroke="transparent" vector-effect="non-scaling-stroke" d="
  M 64.04 30.88
  L 66.20 34.99
  Q 66.60 35.76 67.47 35.75
  L 69.98 35.71
  Q 70.76 35.70 70.42 35.00
  Q 66.31 26.57 62.10 17.86
  Q 60.89 15.34 59.25 13.34
  A 1.90 1.89 37.6 0 0 56.06 13.75
  L 46.64 34.36
  Q 46.08 35.59 47.42 35.77
  L 49.24 36.02
  A 1.62 1.61 14.5 0 0 50.96 35.01
  L 52.55 30.98
  A 0.77 0.76 10.7 0 1 53.26 30.50
  L 63.20 30.38
  A 0.93 0.92 -13.8 0 1 64.04 30.88"
/>
<path stroke="transparent" vector-effect="non-scaling-stroke" d="
  M 78.27 19.88
  L 85.09 29.68
  A 0.52 0.52 0.0 0 0 85.94 29.68
  L 92.16 20.73
  Q 92.80 19.81 92.80 20.93
  L 92.77 35.26
  Q 92.77 35.75 93.26 35.75
  L 96.46 35.77
  Q 96.94 35.77 96.94 35.29
  L 96.96 13.94
  A 0.58 0.58 0.0 0 0 96.36 13.36
  L 93.62 13.44
  Q 92.99 13.46 92.62 13.97
  L 85.70 23.71
  A 0.12 0.12 0.0 0 1 85.51 23.71
  Q 81.62 18.02 76.57 13.19
  Q 75.25 11.92 73.99 13.87
  A 1.33 1.31 62.2 0 0 73.77 14.60
  L 73.74 29.99
  Q 73.74 30.41 73.49 30.75
  C 70.80 34.36 75.95 37.00 77.78 34.83
  Q 78.07 34.48 78.06 34.02
  L 77.69 20.07
  Q 77.66 18.99 78.27 19.88"
/>
<path stroke="transparent" vector-effect="non-scaling-stroke" d="
  M 39.82 28.01
  Q 40.04 29.23 39.80 30.45
  Q 39.71 30.93 39.23 31.06
  C 20.93 35.96 24.87 11.91 37.41 17.95
  A 2.63 2.62 37.9 0 0 40.24 17.60
  L 40.90 17.06
  Q 42.29 15.89 40.77 14.90
  C 31.69 8.95 19.93 17.28 23.34 27.94
  C 26.08 36.49 36.35 37.67 43.17 33.76
  A 1.09 1.08 74.3 0 0 43.70 32.81
  L 43.44 23.92
  Q 43.43 23.41 42.92 23.41
  L 35.04 23.44
  Q 33.50 23.44 33.76 24.96
  L 33.91 25.88
  Q 34.19 27.55 35.88 27.55
  L 39.26 27.54
  Q 39.73 27.54 39.82 28.01"
/>
<path stroke="transparent" vector-effect="non-scaling-stroke" d="
  M 105.90 18.60
  A 0.77 0.77 0.0 0 1 106.67 17.84
  L 119.43 17.78
  A 0.77 0.77 0.0 0 0 120.19 17.01
  L 120.18 14.23
  A 0.77 0.77 0.0 0 0 119.41 13.47
  L 102.64 13.36
  A 0.77 0.77 0.0 0 0 101.87 14.14
  L 102.03 34.97
  A 0.77 0.77 0.0 0 0 102.80 35.73
  L 119.00 35.75
  A 0.77 0.77 0.0 0 0 119.77 34.97
  L 119.76 32.23
  A 0.77 0.77 0.0 0 0 118.98 31.46
  L 106.60 31.49
  A 0.77 0.77 0.0 0 1 105.82 30.71
  L 105.84 27.75
  A 0.77 0.77 0.0 0 1 106.60 26.99
  L 117.61 26.96
  A 0.77 0.77 0.0 0 0 118.38 26.18
  L 118.32 23.38
  A 0.77 0.77 0.0 0 0 117.55 22.62
  L 106.62 22.64
  A 0.77 0.77 0.0 0 1 105.85 21.86
  L 105.90 18.60"
/>
<path stroke="transparent" vector-effect="non-scaling-stroke" d="
  M 131.16 18.29
  L 131.16 20.79
  A 1.06 1.06 0.0 0 0 132.23 21.85
  L 134.87 21.84
  A 3.08 2.18 -0.2 0 0 137.94 19.65
  L 137.94 19.39
  A 3.08 2.18 -0.2 0 0 134.85 17.22
  L 132.21 17.23
  A 1.06 1.06 0.0 0 0 131.16 18.29"
/>
<path stroke="transparent" vector-effect="non-scaling-stroke" d="
  M 131.00 27.51
  L 131.02 29.69
  A 0.62 0.62 0.0 0 0 131.65 30.31
  L 137.07 30.25
  A 2.22 1.63 -0.6 0 0 139.27 28.60
  L 139.27 28.44
  A 2.22 1.63 -0.6 0 0 137.03 26.83
  L 131.61 26.89
  A 0.62 0.62 0.0 0 0 131.00 27.51"
/>
<path stroke="transparent" vector-effect="non-scaling-stroke" d="
  M 180.76 18.34
  L 180.72 29.72
  A 0.34 0.34 0.0 0 0 181.06 30.06
  L 184.85 30.08
  A 5.64 5.25 -89.8 0 0 190.12 24.46
  L 190.12 23.68
  A 5.64 5.25 -89.8 0 0 184.89 18.02
  L 181.10 18.00
  A 0.34 0.34 0.0 0 0 180.76 18.34"
/>
<path stroke="transparent" vector-effect="non-scaling-stroke" d="
  M 54.61 26.15
  A 0.32 0.32 0.0 0 0 54.91 26.60
  L 61.41 26.40
  A 0.32 0.32 0.0 0 0 61.68 25.93
  L 58.22 19.29
  A 0.32 0.32 0.0 0 0 57.65 19.31
  L 54.61 26.15"
/>
</g>
<path fill="transparent" d="
  M 0.00 0.00
  L 218.00 0.00
  L 218.00 47.00
  L 0.00 47.00
  L 0.00 0.00
  Z
  M 5.43 16.45
  C 0.68 27.44 7.67 39.62 18.14 43.41
  Q 21.89 44.77 29.04 44.77
  Q 109.49 44.76 189.94 44.79
  Q 196.46 44.79 199.47 43.87
  C 206.69 41.66 213.55 34.58 214.75 27.25
  C 216.88 14.18 207.28 2.27 194.00 2.26
  Q 115.93 2.17 37.87 2.20
  Q 22.91 2.21 19.73 3.10
  Q 10.02 5.82 5.43 16.45
  Z"
/>
<path fill="#ffffff" d="
  M 5.43 16.45
  Q 10.02 5.82 19.73 3.10
  Q 22.91 2.21 37.87 2.20
  Q 115.93 2.17 194.00 2.26
  C 207.28 2.27 216.88 14.18 214.75 27.25
  C 213.55 34.58 206.69 41.66 199.47 43.87
  Q 196.46 44.79 189.94 44.79
  Q 109.49 44.76 29.04 44.77
  Q 21.89 44.77 18.14 43.41
  C 7.67 39.62 0.68 27.44 5.43 16.45
  Z
  M 142.63 23.80
  A 0.44 0.42 35.7 0 1 142.52 23.18
  C 146.56 18.01 142.85 11.95 136.73 12.13
  Q 131.14 12.28 125.43 12.31
  Q 124.96 12.31 124.96 12.78
  L 124.97 35.23
  Q 124.97 35.69 125.43 35.69
  Q 131.85 35.78 138.24 35.72
  C 144.87 35.66 148.52 27.66 142.63 23.80
  Z
  M 160.76 30.01
  L 159.59 30.02
  Q 155.12 30.05 155.15 25.59
  L 155.23 12.74
  A 0.49 0.48 89.4 0 0 154.74 12.25
  L 149.23 12.29
  A 0.49 0.48 -0.0 0 0 148.75 12.76
  Q 148.68 19.64 149.39 27.00
  C 150.31 36.65 161.03 39.20 167.31 32.81
  Q 169.79 30.29 169.86 25.25
  Q 169.95 18.85 169.83 13.06
  A 0.58 0.57 89.5 0 0 169.26 12.49
  L 164.34 12.50
  Q 163.93 12.50 163.93 12.91
  L 163.99 26.74
  A 3.26 3.25 -0.4 0 1 160.76 30.01
  Z
  M 174.54 12.98
  L 174.54 35.06
  A 0.71 0.71 0.0 0 0 175.25 35.77
  L 184.79 35.77
  A 11.81 11.57 -0.0 0 0 196.60 24.20
  L 196.60 23.84
  A 11.81 11.57 0.0 0 0 184.79 12.27
  L 175.25 12.27
  A 0.71 0.71 0.0 0 0 174.54 12.98
  Z
  M 64.04 30.88
  L 66.20 34.99
  Q 66.60 35.76 67.47 35.75
  L 69.98 35.71
  Q 70.76 35.70 70.42 35.00
  Q 66.31 26.57 62.10 17.86
  Q 60.89 15.34 59.25 13.34
  A 1.90 1.89 37.6 0 0 56.06 13.75
  L 46.64 34.36
  Q 46.08 35.59 47.42 35.77
  L 49.24 36.02
  A 1.62 1.61 14.5 0 0 50.96 35.01
  L 52.55 30.98
  A 0.77 0.76 10.7 0 1 53.26 30.50
  L 63.20 30.38
  A 0.93 0.92 -13.8 0 1 64.04 30.88
  Z
  M 78.27 19.88
  L 85.09 29.68
  A 0.52 0.52 0.0 0 0 85.94 29.68
  L 92.16 20.73
  Q 92.80 19.81 92.80 20.93
  L 92.77 35.26
  Q 92.77 35.75 93.26 35.75
  L 96.46 35.77
  Q 96.94 35.77 96.94 35.29
  L 96.96 13.94
  A 0.58 0.58 0.0 0 0 96.36 13.36
  L 93.62 13.44
  Q 92.99 13.46 92.62 13.97
  L 85.70 23.71
  A 0.12 0.12 0.0 0 1 85.51 23.71
  Q 81.62 18.02 76.57 13.19
  Q 75.25 11.92 73.99 13.87
  A 1.33 1.31 62.2 0 0 73.77 14.60
  L 73.74 29.99
  Q 73.74 30.41 73.49 30.75
  C 70.80 34.36 75.95 37.00 77.78 34.83
  Q 78.07 34.48 78.06 34.02
  L 77.69 20.07
  Q 77.66 18.99 78.27 19.88
  Z
  M 39.82 28.01
  Q 40.04 29.23 39.80 30.45
  Q 39.71 30.93 39.23 31.06
  C 20.93 35.96 24.87 11.91 37.41 17.95
  A 2.63 2.62 37.9 0 0 40.24 17.60
  L 40.90 17.06
  Q 42.29 15.89 40.77 14.90
  C 31.69 8.95 19.93 17.28 23.34 27.94
  C 26.08 36.49 36.35 37.67 43.17 33.76
  A 1.09 1.08 74.3 0 0 43.70 32.81
  L 43.44 23.92
  Q 43.43 23.41 42.92 23.41
  L 35.04 23.44
  Q 33.50 23.44 33.76 24.96
  L 33.91 25.88
  Q 34.19 27.55 35.88 27.55
  L 39.26 27.54
  Q 39.73 27.54 39.82 28.01
  Z
  M 105.90 18.60
  A 0.77 0.77 0.0 0 1 106.67 17.84
  L 119.43 17.78
  A 0.77 0.77 0.0 0 0 120.19 17.01
  L 120.18 14.23
  A 0.77 0.77 0.0 0 0 119.41 13.47
  L 102.64 13.36
  A 0.77 0.77 0.0 0 0 101.87 14.14
  L 102.03 34.97
  A 0.77 0.77 0.0 0 0 102.80 35.73
  L 119.00 35.75
  A 0.77 0.77 0.0 0 0 119.77 34.97
  L 119.76 32.23
  A 0.77 0.77 0.0 0 0 118.98 31.46
  L 106.60 31.49
  A 0.77 0.77 0.0 0 1 105.82 30.71
  L 105.84 27.75
  A 0.77 0.77 0.0 0 1 106.60 26.99
  L 117.61 26.96
  A 0.77 0.77 0.0 0 0 118.38 26.18
  L 118.32 23.38
  A 0.77 0.77 0.0 0 0 117.55 22.62
  L 106.62 22.64
  A 0.77 0.77 0.0 0 1 105.85 21.86
  L 105.90 18.60
  Z"
/>
<path fill="transparent" d="
  M 142.63 23.80
  C 148.52 27.66 144.87 35.66 138.24 35.72
  Q 131.85 35.78 125.43 35.69
  Q 124.97 35.69 124.97 35.23
  L 124.96 12.78
  Q 124.96 12.31 125.43 12.31
  Q 131.14 12.28 136.73 12.13
  C 142.85 11.95 146.56 18.01 142.52 23.18
  A 0.44 0.42 35.7 0 0 142.63 23.80
  Z
  M 131.16 18.29
  L 131.16 20.79
  A 1.06 1.06 0.0 0 0 132.23 21.85
  L 134.87 21.84
  A 3.08 2.18 -0.2 0 0 137.94 19.65
  L 137.94 19.39
  A 3.08 2.18 -0.2 0 0 134.85 17.22
  L 132.21 17.23
  A 1.06 1.06 0.0 0 0 131.16 18.29
  Z
  M 131.00 27.51
  L 131.02 29.69
  A 0.62 0.62 0.0 0 0 131.65 30.31
  L 137.07 30.25
  A 2.22 1.63 -0.6 0 0 139.27 28.60
  L 139.27 28.44
  A 2.22 1.63 -0.6 0 0 137.03 26.83
  L 131.61 26.89
  A 0.62 0.62 0.0 0 0 131.00 27.51
  Z"
/>
<path fill="transparent" d="
  M 160.76 30.01
  A 3.26 3.25 -0.4 0 0 163.99 26.74
  L 163.93 12.91
  Q 163.93 12.50 164.34 12.50
  L 169.26 12.49
  A 0.58 0.57 89.5 0 1 169.83 13.06
  Q 169.95 18.85 169.86 25.25
  Q 169.79 30.29 167.31 32.81
  C 161.03 39.20 150.31 36.65 149.39 27.00
  Q 148.68 19.64 148.75 12.76
  A 0.49 0.48 -0.0 0 1 149.23 12.29
  L 154.74 12.25
  A 0.49 0.48 89.4 0 1 155.23 12.74
  L 155.15 25.59
  Q 155.12 30.05 159.59 30.02
  L 160.76 30.01
  Z"
/>
<path fill="transparent" d="
  M 174.54 12.98
  A 0.71 0.71 0.0 0 1 175.25 12.27
  L 184.79 12.27
  A 11.81 11.57 0.0 0 1 196.60 23.84
  L 196.60 24.20
  A 11.81 11.57 0.0 0 1 184.79 35.77
  L 175.25 35.77
  A 0.71 0.71 0.0 0 1 174.54 35.06
  L 174.54 12.98
  Z
  M 180.76 18.34
  L 180.72 29.72
  A 0.34 0.34 0.0 0 0 181.06 30.06
  L 184.85 30.08
  A 5.64 5.25 -89.8 0 0 190.12 24.46
  L 190.12 23.68
  A 5.64 5.25 -89.8 0 0 184.89 18.02
  L 181.10 18.00
  A 0.34 0.34 0.0 0 0 180.76 18.34
  Z"
/>
<path fill="transparent" d="
  M 63.20 30.38
  L 53.26 30.50
  A 0.77 0.76 10.7 0 0 52.55 30.98
  L 50.96 35.01
  A 1.62 1.61 14.5 0 1 49.24 36.02
  L 47.42 35.77
  Q 46.08 35.59 46.64 34.36
  L 56.06 13.75
  A 1.90 1.89 37.6 0 1 59.25 13.34
  Q 60.89 15.34 62.10 17.86
  Q 66.31 26.57 70.42 35.00
  Q 70.76 35.70 69.98 35.71
  L 67.47 35.75
  Q 66.60 35.76 66.20 34.99
  L 64.04 30.88
  A 0.93 0.92 -13.8 0 0 63.20 30.38
  Z
  M 54.61 26.15
  A 0.32 0.32 0.0 0 0 54.91 26.60
  L 61.41 26.40
  A 0.32 0.32 0.0 0 0 61.68 25.93
  L 58.22 19.29
  A 0.32 0.32 0.0 0 0 57.65 19.31
  L 54.61 26.15
  Z"
/>
<path fill="transparent" d="
  M 77.69 20.07
  L 78.06 34.02
  Q 78.07 34.48 77.78 34.83
  C 75.95 37.00 70.80 34.36 73.49 30.75
  Q 73.74 30.41 73.74 29.99
  L 73.77 14.60
  A 1.33 1.31 62.2 0 1 73.99 13.87
  Q 75.25 11.92 76.57 13.19
  Q 81.62 18.02 85.51 23.71
  A 0.12 0.12 0.0 0 0 85.70 23.71
  L 92.62 13.97
  Q 92.99 13.46 93.62 13.44
  L 96.36 13.36
  A 0.58 0.58 0.0 0 1 96.96 13.94
  L 96.94 35.29
  Q 96.94 35.77 96.46 35.77
  L 93.26 35.75
  Q 92.77 35.75 92.77 35.26
  L 92.80 20.93
  Q 92.80 19.81 92.16 20.73
  L 85.94 29.68
  A 0.52 0.52 0.0 0 1 85.09 29.68
  L 78.27 19.88
  Q 77.66 18.99 77.69 20.07
  Z"
/>
<path fill="transparent" d="
  M 39.26 27.54
  L 35.88 27.55
  Q 34.19 27.55 33.91 25.88
  L 33.76 24.96
  Q 33.50 23.44 35.04 23.44
  L 42.92 23.41
  Q 43.43 23.41 43.44 23.92
  L 43.70 32.81
  A 1.09 1.08 74.3 0 1 43.17 33.76
  C 36.35 37.67 26.08 36.49 23.34 27.94
  C 19.93 17.28 31.69 8.95 40.77 14.90
  Q 42.29 15.89 40.90 17.06
  L 40.24 17.60
  A 2.63 2.62 37.9 0 1 37.41 17.95
  C 24.87 11.91 20.93 35.96 39.23 31.06
  Q 39.71 30.93 39.80 30.45
  Q 40.04 29.23 39.82 28.01
  Q 39.73 27.54 39.26 27.54
  Z"
/>
<path fill="transparent" d="
  M 105.90 18.60
  L 105.85 21.86
  A 0.77 0.77 0.0 0 0 106.62 22.64
  L 117.55 22.62
  A 0.77 0.77 0.0 0 1 118.32 23.38
  L 118.38 26.18
  A 0.77 0.77 0.0 0 1 117.61 26.96
  L 106.60 26.99
  A 0.77 0.77 0.0 0 0 105.84 27.75
  L 105.82 30.71
  A 0.77 0.77 0.0 0 0 106.60 31.49
  L 118.98 31.46
  A 0.77 0.77 0.0 0 1 119.76 32.23
  L 119.77 34.97
  A 0.77 0.77 0.0 0 1 119.00 35.75
  L 102.80 35.73
  A 0.77 0.77 0.0 0 1 102.03 34.97
  L 101.87 14.14
  A 0.77 0.77 0.0 0 1 102.64 13.36
  L 119.41 13.47
  A 0.77 0.77 0.0 0 1 120.18 14.23
  L 120.19 17.01
  A 0.77 0.77 0.0 0 1 119.43 17.78
  L 106.67 17.84
  A 0.77 0.77 0.0 0 0 105.90 18.60
  Z"
/>
<path fill="#ffffff" d="
  M 131.16 18.29
  A 1.06 1.06 0.0 0 1 132.21 17.23
  L 134.85 17.22
  A 3.08 2.18 -0.2 0 1 137.94 19.39
  L 137.94 19.65
  A 3.08 2.18 -0.2 0 1 134.87 21.84
  L 132.23 21.85
  A 1.06 1.06 0.0 0 1 131.16 20.79
  L 131.16 18.29
  Z"
/>
<path fill="#ffffff" d="
  M 180.76 18.34
  A 0.34 0.34 0.0 0 1 181.10 18.00
  L 184.89 18.02
  A 5.64 5.25 -89.8 0 1 190.12 23.68
  L 190.12 24.46
  A 5.64 5.25 -89.8 0 1 184.85 30.08
  L 181.06 30.06
  A 0.34 0.34 0.0 0 1 180.72 29.72
  L 180.76 18.34
  Z"
/>
<path fill="#ffffff" d="
  M 54.61 26.15
  L 57.65 19.31
  A 0.32 0.32 0.0 0 1 58.22 19.29
  L 61.68 25.93
  A 0.32 0.32 0.0 0 1 61.41 26.40
  L 54.91 26.60
  A 0.32 0.32 0.0 0 1 54.61 26.15
  Z"
/>
<path fill="#ffffff" d="
  M 131.00 27.51
  A 0.62 0.62 0.0 0 1 131.61 26.89
  L 137.03 26.83
  A 2.22 1.63 -0.6 0 1 139.27 28.44
  L 139.27 28.60
  A 2.22 1.63 -0.6 0 1 137.07 30.25
  L 131.65 30.31
  A 0.62 0.62 0.0 0 1 131.02 29.69
  L 131.00 27.51
  Z"
/>
</svg>
